<svg width="29" height="29" viewBox="0 0 29 29" fill="none" xmlns="http://www.w3.org/2000/svg">
<circle r="14" transform="matrix(-1 0 0 1 14.9497 14.6694)" fill="white"/>
<path d="M10.0088 15.4197C9.59458 15.4197 9.25879 15.0839 9.25879 14.6697C9.25879 14.2555 9.59458 13.9197 10.0088 13.9197V15.4197ZM20.4215 14.1393C20.7144 14.4322 20.7144 14.9071 20.4215 15.2L15.6485 19.973C15.3556 20.2659 14.8807 20.2659 14.5878 19.973C14.2949 19.6801 14.2949 19.2052 14.5878 18.9123L18.8305 14.6697L14.5878 10.427C14.2949 10.1341 14.2949 9.65927 14.5878 9.36638C14.8807 9.07348 15.3556 9.07348 15.6485 9.36638L20.4215 14.1393ZM10.0088 13.9197L19.8911 13.9197V15.4197L10.0088 15.4197V13.9197Z" fill="#0E0F13"/>
</svg>
