<svg width="29" height="29" viewBox="0 0 29 29" fill="none" xmlns="http://www.w3.org/2000/svg">
<circle cx="14.9497" cy="14.6694" r="14" fill="white"/>
<path d="M19.8906 15.4197C20.3048 15.4197 20.6406 15.0839 20.6406 14.6697C20.6406 14.2555 20.3048 13.9197 19.8906 13.9197V15.4197ZM9.47794 14.1393C9.18505 14.4322 9.18505 14.9071 9.47794 15.2L14.2509 19.973C14.5438 20.2659 15.0187 20.2659 15.3116 19.973C15.6045 19.6801 15.6045 19.2052 15.3116 18.9123L11.0689 14.6697L15.3116 10.427C15.6045 10.1341 15.6045 9.65927 15.3116 9.36638C15.0187 9.07348 14.5438 9.07348 14.2509 9.36638L9.47794 14.1393ZM19.8906 13.9197L10.0083 13.9197V15.4197L19.8906 15.4197V13.9197Z" fill="#0E0F13"/>
</svg>
