<svg width="26" height="13" viewBox="0 0 26 13" fill="none" xmlns="http://www.w3.org/2000/svg">
<path d="M24.9999 7.25C25.4141 7.25 25.7499 6.91421 25.7499 6.5C25.7499 6.08579 25.4141 5.75 24.9999 5.75V7.25ZM0.469547 5.96967C0.176655 6.26256 0.176655 6.73744 0.469547 7.03033L5.24252 11.8033C5.53541 12.0962 6.01029 12.0962 6.30318 11.8033C6.59607 11.5104 6.59607 11.0355 6.30318 10.7426L2.06054 6.5L6.30318 2.25736C6.59607 1.96447 6.59607 1.48959 6.30318 1.1967C6.01029 0.903806 5.53541 0.903806 5.24252 1.1967L0.469547 5.96967ZM24.9999 5.75L0.999878 5.75V7.25L24.9999 7.25V5.75Z" fill="#E4B24A"/>
</svg>
