<svg width="243" height="240" viewBox="0 0 243 240" fill="none" xmlns="http://www.w3.org/2000/svg">
<g style="mix-blend-mode:screen">
<path d="M139.202 117.251L110.797 132.251V102.251L139.202 117.251Z" fill="#F9F2EB"/>
</g>
<path d="M67.1786 84.5423C66.5355 85.5202 65.7466 86.2661 64.8119 86.78C63.8772 87.2938 62.9809 87.4972 62.123 87.3901L61.9825 85.4866C63.5913 85.4852 64.8232 84.8345 65.6782 83.5345C66.1171 82.8672 66.3072 82.2126 66.2487 81.5706C66.1902 80.9286 65.8808 80.4286 65.3206 80.0706C64.3635 79.459 63.2774 79.5982 62.0621 80.4883L60.3649 81.7078C59.36 82.4545 58.4415 82.8806 57.6095 82.9862C56.7734 83.0729 55.9352 82.8477 55.0948 82.3107C54.0911 81.6692 53.5299 80.7959 53.4114 79.6907C53.2812 78.5781 53.583 77.4637 54.317 76.3478C54.8088 75.5999 55.4166 75.0161 56.1403 74.5962C56.8523 74.1688 57.59 73.9294 58.3532 73.8779L58.6432 75.7055C57.3722 75.8737 56.4303 76.4237 55.8174 77.3556C55.4088 77.9769 55.2279 78.6048 55.2748 79.2393C55.3099 79.8664 55.5785 80.3403 56.0803 80.661C56.5822 80.9817 57.0698 81.0972 57.5432 81.0076C58.0242 80.9064 58.6066 80.6005 59.2906 80.0898L60.8331 78.9921C61.8229 78.2684 62.7589 77.8535 63.641 77.7472C64.5307 77.6295 65.4191 77.854 66.3061 78.4209C67.3449 79.0847 67.9373 79.9861 68.0833 81.1252C68.2368 82.2528 67.9353 83.3918 67.1786 84.5423Z" fill="#F9F2EB"/>
<path d="M70.8431 78.7788L60.294 68.5459L61.6538 67.1838L66.1557 71.5508L71.8434 65.8536L67.3414 61.4866L68.7012 60.1245L79.2503 70.3574L77.8906 71.7195L73.136 67.1075L67.4484 72.8047L72.2029 77.4168L70.8431 78.7788Z" fill="#F9F2EB"/>
<path d="M86.4376 63.6193C87.8193 62.7745 88.6741 61.599 89.0019 60.0928C89.3415 58.5795 89.0828 57.1418 88.2258 55.7797C87.3687 54.4177 86.177 53.5505 84.6507 53.178C83.1362 52.7982 81.6881 53.0308 80.3064 53.8756C78.9364 54.7132 78.0817 55.8887 77.742 57.4021C77.4142 58.9082 77.6789 60.3423 78.5359 61.7043C79.393 63.0663 80.5787 63.9372 82.0932 64.3169C83.6195 64.6894 85.0677 64.4569 86.4376 63.6193ZM87.4045 65.1559C85.5976 66.2607 83.6741 66.5824 81.634 66.1211C79.5866 65.6481 77.9988 64.5152 76.8707 62.7224C75.7426 60.9297 75.4222 59.03 75.9094 57.0235C76.3892 55.0052 77.5326 53.4437 79.3394 52.339C81.1581 51.227 83.0853 50.9111 85.1209 51.3913C87.161 51.8527 88.7451 52.9797 89.8732 54.7725C91.0013 56.5652 91.3254 58.4707 90.8456 60.4889C90.3702 62.4883 89.2232 64.044 87.4045 65.1559Z" fill="#F9F2EB"/>
<path d="M98.3681 59.2784L89.8533 46.5105L91.7967 45.9601L98.3314 55.804L98.7088 44.0025L100.312 43.5486L107.007 53.347L107.224 41.591L109.207 41.0292L108.846 56.3108L107.224 56.7704L100.405 46.7717L100.011 58.8131L98.3681 59.2784Z" fill="#F9F2EB"/>
<path d="M114.86 55.5703L114.392 41.0513L119.413 40.8941C120.768 40.8516 121.852 41.1861 122.664 41.8976C123.475 42.5955 123.901 43.5511 123.94 44.7644C123.974 45.8277 123.677 46.7104 123.049 47.4124C122.435 48.114 121.557 48.5645 120.414 48.7641L126.312 55.2116L123.884 55.2877L118.008 48.8599L116.577 48.9047L116.79 55.5098L114.86 55.5703ZM116.522 47.2074L119.385 47.1178C120.242 47.0909 120.9 46.8861 121.359 46.5033C121.816 46.1068 122.034 45.5473 122.011 44.8248C121.987 44.1023 121.734 43.5575 121.252 43.1905C120.769 42.8099 120.099 42.633 119.241 42.6598L116.378 42.7495L116.522 47.2074Z" fill="#F9F2EB"/>
<path d="M127.46 55.4459L129.64 41.0159L138.176 42.2689L137.906 44.0574L131.288 43.0859L130.628 47.4555L136.009 48.2454L135.739 50.034L130.357 49.244L129.648 53.9389L136.267 54.9104L135.996 56.6989L127.46 55.4459Z" fill="#F9F2EB"/>
<path d="M138.321 57.3185L142.914 43.4497L151.118 46.0898L150.548 47.8087L144.187 45.7617L142.796 49.9614L147.969 51.6258L147.399 53.3448L142.227 51.6804L140.733 56.1927L147.094 58.2397L146.525 59.9586L138.321 57.3185Z" fill="#F9F2EB"/>
<path d="M148.659 60.9992L155.549 48.1321L157.259 49.0217L151.223 60.2941L157.529 63.5753L156.675 65.1701L148.659 60.9992Z" fill="#F9F2EB"/>
<path d="M179.454 90.2615C178.912 89.2269 178.647 88.1828 178.658 87.129C178.669 86.0752 178.934 85.2081 179.454 84.5277L181.198 85.3509C180.402 86.7271 180.364 88.1028 181.084 89.4782C181.454 90.1841 181.936 90.6711 182.53 90.9392C183.123 91.2074 183.717 91.1907 184.309 90.8891C185.322 90.374 185.738 89.3763 185.557 87.8962L185.325 85.8408C185.166 84.6115 185.246 83.6151 185.566 82.8514C185.904 82.0937 186.517 81.4886 187.406 81.0363C188.468 80.496 189.515 80.4491 190.546 80.8955C191.59 81.3356 192.42 82.1459 193.039 83.3265C193.453 84.1176 193.665 84.9266 193.676 85.7535C193.699 86.574 193.544 87.3233 193.211 88.0014L191.46 87.3436C191.942 86.1736 191.924 85.0957 191.408 84.1098C191.064 83.4526 190.601 82.9868 190.02 82.7123C189.45 82.4316 188.9 82.4263 188.369 82.6965C187.839 82.9666 187.495 83.3262 187.339 83.7754C187.19 84.2367 187.171 84.8863 187.281 85.7242L187.482 87.5869C187.629 88.7919 187.53 89.7978 187.186 90.6046C186.849 91.4236 186.211 92.0719 185.273 92.5493C184.174 93.1084 183.087 93.1681 182.012 92.7284C180.944 92.3009 180.091 91.4786 179.454 90.2615Z" fill="#F9F2EB"/>
<path d="M182.722 96.2393L196.895 92.2317L197.428 94.0617L191.379 95.772L193.607 103.426L199.655 101.716L200.188 103.546L186.015 107.554L185.482 105.724L191.87 103.918L189.642 96.2631L183.254 98.0693L182.722 96.2393Z" fill="#F9F2EB"/>
<path d="M188.516 117.049C188.579 118.65 189.194 119.963 190.361 120.988C191.529 122.026 192.925 122.514 194.55 122.451C196.174 122.389 197.528 121.796 198.61 120.671C199.692 119.56 200.202 118.204 200.139 116.602C200.076 115.015 199.461 113.702 198.293 112.663C197.126 111.639 195.731 111.158 194.106 111.22C192.481 111.282 191.127 111.869 190.045 112.98C188.963 114.105 188.453 115.461 188.516 117.049ZM186.683 117.119C186.6 115.025 187.266 113.217 188.68 111.696C190.108 110.174 191.891 109.372 194.03 109.29C196.168 109.208 198.002 109.871 199.532 111.279C201.076 112.687 201.889 114.438 201.972 116.532C202.055 118.64 201.382 120.448 199.954 121.956C198.54 123.477 196.763 124.279 194.625 124.361C192.486 124.443 190.645 123.78 189.102 122.373C187.572 120.978 186.766 119.227 186.683 117.119Z" fill="#F9F2EB"/>
<path d="M186.455 129.429L201.921 128.401L201.451 130.34L189.542 131.107L199.781 137.235L199.394 138.834L187.446 139.761L197.723 145.729L197.244 147.708L183.923 139.882L184.315 138.263L196.5 137.329L186.058 131.068L186.455 129.429Z" fill="#F9F2EB"/>
<path d="M181.703 145.473L194.823 152.226L192.488 156.634C191.858 157.824 191.027 158.594 189.995 158.943C188.976 159.299 187.918 159.195 186.821 158.631C185.86 158.137 185.223 157.445 184.909 156.558C184.589 155.682 184.622 154.702 185.008 153.618L176.378 155.528L177.507 153.397L186.109 151.496L186.775 150.239L180.806 147.167L181.703 145.473ZM188.308 151.028L186.977 153.542C186.578 154.295 186.436 154.963 186.55 155.547C186.676 156.138 187.066 156.601 187.719 156.937C188.371 157.273 188.98 157.323 189.543 157.088C190.119 156.859 190.607 156.368 191.005 155.615L192.337 153.102L188.308 151.028Z" fill="#F9F2EB"/>
<path d="M175.553 156.295L187.223 165.269L181.914 171.977L180.468 170.864L184.584 165.664L181.05 162.946L177.703 167.175L176.257 166.062L179.604 161.834L175.807 158.914L171.691 164.115L170.245 163.003L175.553 156.295Z" fill="#F9F2EB"/>
<path d="M168.569 164.676L178.539 175.458L172.161 181.189L170.926 179.852L175.871 175.409L172.852 172.144L168.831 175.757L167.595 174.42L171.616 170.807L168.372 167.299L163.427 171.743L162.191 170.407L168.569 164.676Z" fill="#F9F2EB"/>
<path d="M160.23 171.779L168.265 184.031L166.637 185.068L159.598 174.335L153.593 178.161L152.597 176.642L160.23 171.779Z" fill="#F9F2EB"/>
<path d="M119.219 183.786C120.399 183.827 121.453 184.111 122.379 184.638C123.306 185.164 123.942 185.817 124.289 186.597L122.706 187.692C121.879 186.333 120.681 185.626 119.112 185.571C118.306 185.542 117.639 185.717 117.111 186.096C116.583 186.475 116.307 186.993 116.283 187.65C116.242 188.772 116.92 189.619 118.318 190.189L120.249 190.998C121.414 191.464 122.256 192.022 122.774 192.671C123.279 193.333 123.513 194.157 123.477 195.142C123.434 196.32 122.962 197.242 122.062 197.909C121.161 198.59 120.037 198.907 118.69 198.859C117.787 198.827 116.967 198.613 116.231 198.216C115.494 197.834 114.907 197.333 114.471 196.715L115.912 195.532C116.71 196.52 117.672 197.034 118.796 197.074C119.546 197.1 120.185 196.931 120.713 196.566C121.241 196.215 121.515 195.745 121.536 195.156C121.558 194.567 121.408 194.096 121.087 193.742C120.753 193.387 120.188 193.052 119.393 192.736L117.647 191.995C116.51 191.53 115.669 190.952 115.124 190.261C114.565 189.57 114.304 188.704 114.342 187.663C114.387 186.445 114.867 185.482 115.783 184.774C116.685 184.066 117.83 183.736 119.219 183.786Z" fill="#F9F2EB"/>
<path d="M112.316 183.664L108.914 197.849L107.029 197.409L108.481 191.356L100.597 189.519L99.1451 195.572L97.2603 195.133L100.662 180.948L102.547 181.388L101.014 187.781L108.898 189.618L110.431 183.225L112.316 183.664Z" fill="#F9F2EB"/>
<path d="M91.0584 178.364C89.6111 177.627 88.1462 177.506 86.6638 178.003C85.169 178.493 84.0479 179.451 83.3003 180.878C82.5527 182.305 82.4088 183.76 82.8685 185.246C83.3158 186.725 84.2631 187.833 85.7104 188.569C87.1453 189.3 88.6102 189.42 90.1049 188.93C91.5874 188.434 92.7023 187.472 93.4499 186.046C94.1975 184.619 94.3476 183.166 93.9003 181.687C93.4406 180.202 92.4933 179.094 91.0584 178.364ZM91.9018 176.754C93.7944 177.718 95.0638 179.183 95.7102 181.149C96.3501 183.128 96.1781 185.056 95.1941 186.934C94.2101 188.812 92.7177 190.06 90.7168 190.678C88.7095 191.309 86.7596 191.143 84.867 190.179C82.962 189.209 81.6957 187.738 81.0682 185.766C80.4219 183.799 80.5907 181.877 81.5747 179.999C82.5586 178.121 84.0543 176.867 86.0615 176.236C88.05 175.612 89.9968 175.784 91.9018 176.754Z" fill="#F9F2EB"/>
<path d="M81.1605 170.505L74.4065 184.261L72.9302 182.898L78.1528 172.318L67.6793 178.052L66.4617 176.929L71.5626 166.236L61.2108 172.082L59.7041 170.692L73.2005 163.158L74.4333 164.296L69.2213 175.196L79.9125 169.353L81.1605 170.505Z" fill="#F9F2EB"/>
<path d="M69.3404 158.527L56.9262 166.492L54.1721 162.321C53.4286 161.195 53.1553 160.103 53.3523 159.044C53.5377 157.993 54.149 157.134 55.1865 156.469C56.0957 155.885 57.02 155.677 57.9594 155.843C58.8912 155.997 59.742 156.507 60.5116 157.371L63.0583 149.013L64.3899 151.03L61.8492 159.359L62.6344 160.548L68.282 156.924L69.3404 158.527ZM61.1832 161.479L59.6127 159.101C59.1423 158.388 58.6208 157.938 58.0481 157.749C57.4637 157.568 56.8627 157.675 56.2449 158.071C55.6271 158.468 55.284 158.966 55.2155 159.566C55.1355 160.174 55.3306 160.834 55.801 161.546L57.3715 163.925L61.1832 161.479Z" fill="#F9F2EB"/>
<path d="M62.812 147.901L49.1501 153.512L45.8308 145.66L47.5241 144.964L50.0978 151.053L54.2348 149.354L52.1422 144.403L53.8355 143.708L55.9281 148.658L60.373 146.832L57.7994 140.744L59.4927 140.048L62.812 147.901Z" fill="#F9F2EB"/>
<path d="M58.8425 137.798L44.4163 141.058L42.4881 132.766L44.2762 132.362L45.7712 138.791L50.1397 137.804L48.9241 132.576L50.7122 132.172L51.9278 137.4L56.6214 136.339L55.1263 129.91L56.9144 129.506L58.8425 137.798Z" fill="#F9F2EB"/>
<path d="M56.6681 127.164L41.8924 128.006L41.7804 126.099L54.7248 125.361L54.3119 118.324L56.1433 118.22L56.6681 127.164Z" fill="#F9F2EB"/>
</svg>
