<svg width="28" height="28" viewBox="0 0 28 28" fill="none" xmlns="http://www.w3.org/2000/svg">
<path d="M18.5 26H9.5C5.3585 26 2 22.6415 2 18.5L2 9.5C2 5.3585 5.3585 2 9.5 2H18.5C22.6415 2 26 5.3585 26 9.5L26 18.5C26 22.6415 22.6415 26 18.5 26Z" fill="#F9F2EB"/>
<path d="M13.9993 20.001C10.6858 20.001 7.99933 17.3145 7.99933 14.001C7.99933 10.6875 10.6858 8.00098 13.9993 8.00098C17.3128 8.00098 19.9993 10.6875 19.9993 14.001C19.9993 17.3145 17.3128 20.001 13.9993 20.001ZM13.9993 10.251C11.9323 10.251 10.2493 11.934 10.2493 14.001C10.2493 16.0695 11.9323 17.751 13.9993 17.751C16.0663 17.751 17.7493 16.0695 17.7493 14.001C17.7493 11.934 16.0663 10.251 13.9993 10.251Z" fill="#12101F"/>
<path d="M6.95873 6.94803C7.63579 6.94803 8.18467 7.4969 8.18467 8.17397C8.18467 8.85103 7.63579 9.3999 6.95873 9.3999C6.28166 9.3999 5.73279 8.85103 5.73279 8.17397C5.73279 7.4969 6.28166 6.94803 6.95873 6.94803Z" fill="#12101F"/>
</svg>
