<svg width="25" height="25" viewBox="0 0 25 25" fill="none" xmlns="http://www.w3.org/2000/svg">
<path d="M16.755 24.5L7.75501 24.5C3.6135 24.5 0.255005 21.1415 0.255005 17L0.255005 8C0.255005 3.8585 3.6135 0.499999 7.75501 0.499999L16.755 0.499999C20.8965 0.499999 24.255 3.8585 24.255 8L24.255 17C24.255 21.1415 20.8965 24.5 16.755 24.5Z" fill="#12101F"/>
<path d="M12.2543 18.5005C8.94083 18.5005 6.25433 15.814 6.25433 12.5005C6.25433 9.18699 8.94083 6.50049 12.2543 6.50049C15.5678 6.50049 18.2543 9.18699 18.2543 12.5005C18.2543 15.814 15.5678 18.5005 12.2543 18.5005ZM12.2543 8.75049C10.1873 8.75049 8.50433 10.4335 8.50433 12.5005C8.50433 14.569 10.1873 16.2505 12.2543 16.2505C14.3213 16.2505 16.0043 14.569 16.0043 12.5005C16.0043 10.4335 14.3213 8.75049 12.2543 8.75049Z" fill="#F9F2EB"/>
<path d="M5.21373 5.44755C5.8908 5.44755 6.43967 5.99642 6.43967 6.67348C6.43967 7.35054 5.8908 7.89941 5.21373 7.89941C4.53666 7.89941 3.98779 7.35054 3.98779 6.67348C3.98779 5.99642 4.53666 5.44755 5.21373 5.44755Z" fill="#F9F2EB"/>
</svg>
