<svg width="27" height="26" viewBox="0 0 27 26" fill="none" xmlns="http://www.w3.org/2000/svg">
<path d="M18.3345 25.255H8.86388C4.50581 25.255 0.97168 21.7209 0.97168 17.3628L0.97168 7.89216C0.97168 3.53409 4.50581 -3.8147e-05 8.86388 -3.8147e-05H18.3345C22.6926 -3.8147e-05 26.2267 3.53409 26.2267 7.89216L26.2267 17.3628C26.2267 21.7209 22.6926 25.255 18.3345 25.255Z" fill="white"/>
<path d="M13.5984 18.942C10.1117 18.942 7.28467 16.115 7.28467 12.6283C7.28467 9.14148 10.1117 6.3145 13.5984 6.3145C17.0852 6.3145 19.9122 9.14148 19.9122 12.6283C19.9122 16.115 17.0852 18.942 13.5984 18.942ZM13.5984 8.68216C11.4233 8.68216 9.65233 10.4532 9.65233 12.6283C9.65233 14.8049 11.4233 16.5744 13.5984 16.5744C15.7735 16.5744 17.5445 14.8049 17.5445 12.6283C17.5445 10.4532 15.7735 8.68216 13.5984 8.68216Z" fill="black"/>
<path d="M6.18946 5.20629C6.90194 5.20629 7.47951 5.78386 7.47951 6.49633C7.47951 7.20881 6.90194 7.78638 6.18946 7.78638C5.47699 7.78638 4.89941 7.20881 4.89941 6.49633C4.89941 5.78386 5.47699 5.20629 6.18946 5.20629Z" fill="black"/>
</svg>
