<svg width="28" height="28" viewBox="0 0 28 28" fill="none" xmlns="http://www.w3.org/2000/svg">
<path d="M18.5 26L9.5 26C5.3585 26 2 22.6415 2 18.5L2 9.5C2 5.3585 5.3585 2 9.5 2L18.5 2C22.6415 2 26 5.3585 26 9.5L26 18.5C26 22.6415 22.6415 26 18.5 26Z" fill="#12101F"/>
<path d="M14 20.001C10.6865 20.001 8 17.3145 8 14.001C8 10.6875 10.6865 8.00098 14 8.00098C17.3135 8.00098 20 10.6875 20 14.001C20 17.3145 17.3135 20.001 14 20.001ZM14 10.251C11.933 10.251 10.25 11.934 10.25 14.001C10.25 16.0695 11.933 17.751 14 17.751C16.067 17.751 17.75 16.0695 17.75 14.001C17.75 11.934 16.067 10.251 14 10.251Z" fill="#F9F2EB"/>
<path d="M6.95836 6.94755C7.63543 6.94755 8.1843 7.49642 8.1843 8.17348C8.1843 8.85054 7.63543 9.39941 6.95836 9.39941C6.28129 9.39941 5.73242 8.85054 5.73242 8.17348C5.73242 7.49642 6.28129 6.94755 6.95836 6.94755Z" fill="#F9F2EB"/>
</svg>
