<svg width="27" height="26" viewBox="0 0 27 26" fill="none" xmlns="http://www.w3.org/2000/svg">
<path d="M18.3341 25.2551H8.86345C4.50538 25.2551 0.971252 21.721 0.971252 17.3629L0.971252 7.89228C0.971252 3.53421 4.50538 8.39233e-05 8.86345 8.39233e-05H18.3341C22.6922 8.39233e-05 26.2263 3.53421 26.2263 7.89228L26.2263 17.3629C26.2263 21.721 22.6922 25.2551 18.3341 25.2551Z" fill="black"/>
<path d="M13.5981 18.9419C10.1113 18.9419 7.2843 16.1149 7.2843 12.6281C7.2843 9.14136 10.1113 6.31437 13.5981 6.31437C17.0848 6.31437 19.9118 9.14136 19.9118 12.6281C19.9118 16.1149 17.0848 18.9419 13.5981 18.9419ZM13.5981 8.68203C11.423 8.68203 9.65196 10.453 9.65196 12.6281C9.65196 14.8048 11.423 16.5742 13.5981 16.5742C15.7732 16.5742 17.5442 14.8048 17.5442 12.6281C17.5442 10.453 15.7732 8.68203 13.5981 8.68203Z" fill="white"/>
<path d="M6.18928 5.20629C6.90175 5.20629 7.47933 5.78386 7.47933 6.49633C7.47933 7.20881 6.90175 7.78638 6.18928 7.78638C5.47681 7.78638 4.89923 7.20881 4.89923 6.49633C4.89923 5.78386 5.47681 5.20629 6.18928 5.20629Z" fill="white"/>
</svg>
