<svg width="100" height="39" viewBox="0 0 100 39" fill="none" xmlns="http://www.w3.org/2000/svg">
<path d="M10.2238 0.0168457H1.2622C0.567991 0.0168457 0 0.581817 0 1.27234C0 1.96286 0.567991 2.52783 1.2622 2.52783H10.2238C12.7482 2.52783 16.4086 5.60379 16.4086 11.2535C16.4086 16.8405 12.7482 19.9164 10.2238 19.9164H1.2622C0.567991 19.9164 0 20.4814 0 21.1719C0 21.8624 0.567991 22.4274 1.2622 22.4274H10.2238C14.4522 22.4274 18.9961 17.9076 18.9961 11.1907C18.9961 4.53662 14.4522 0.0168457 10.2238 0.0168457ZM40.6429 0.958465C40.4536 0.393494 40.0118 0.0168457 39.3807 0.0168457C38.8127 0.0168457 38.3078 0.393494 38.1185 0.958465L27.5791 37.305C27.3898 37.9955 27.7684 38.686 28.4626 38.8744C29.1569 39.0627 29.8511 38.686 30.0404 37.9955L39.4438 5.91766L48.8472 38.0583C49.0365 38.6232 49.5414 38.9999 50.1094 38.9999C50.2356 38.9999 50.3618 38.9999 50.4881 38.9371C51.1823 38.7488 51.5609 38.0583 51.3716 37.3678L40.6429 0.958465ZM67.7171 0.0168457H58.8186C58.1244 0.0168457 57.5564 0.581817 57.5564 1.27234C57.5564 1.96286 58.1244 2.52783 58.8186 2.52783H67.7802C70.6833 2.52783 73.965 5.60379 73.965 9.99801C73.965 14.3922 70.6833 17.4682 67.7802 17.4682H64.5616C63.615 17.4682 63.047 18.2843 63.3625 19.1631L70.0522 37.9955C70.2415 38.4977 70.7464 38.8744 71.2513 38.8744C71.3775 38.8744 71.5668 38.8743 71.6931 38.8116C72.3873 38.5605 72.7028 37.87 72.4504 37.1794L66.3918 20.1047H67.7802C72.0086 20.1047 76.5525 16.0872 76.5525 10.0608C76.5525 4.03442 71.9455 0.0168457 67.7171 0.0168457ZM99.9033 37.1167L91.5096 18.7865L99.2722 1.83731C99.5877 1.20956 99.2722 0.456268 98.6411 0.142395C98.01 -0.171478 97.2526 0.142395 96.9371 0.770141L88.6697 18.7865L97.5682 38.1838C97.7575 38.686 98.2624 38.9371 98.7673 38.9371C98.9566 38.9371 99.1459 38.8743 99.2722 38.8116C99.9033 38.4977 100.156 37.7444 99.9033 37.1167Z" fill="url(#paint0_linear_64:113)"/>
<defs>
<linearGradient id="paint0_linear_64:113" x1="0" y1="19.4763" x2="100.005" y2="19.4763" gradientUnits="userSpaceOnUse">
<stop stop-color="#E32626"/>
<stop offset="0.0464958" stop-color="#E64825"/>
<stop offset="0.1137" stop-color="#EA6624"/>
<stop offset="0.1823" stop-color="#ED7B22"/>
<stop offset="0.2521" stop-color="#F08821"/>
<stop offset="0.3237" stop-color="#F19020"/>
<stop offset="0.4" stop-color="#F29220"/>
<stop offset="0.68" stop-color="#009993"/>
<stop offset="1" stop-color="#1D86C8"/>
</linearGradient>
</defs>
</svg>
