<svg width="90" height="35" viewBox="0 0 90 35" fill="none" xmlns="http://www.w3.org/2000/svg">
<path d="M9.20145 0.281921H1.13598C0.511192 0.281921 0 0.774675 0 1.37693C0 1.97918 0.511192 2.47194 1.13598 2.47194H9.20145C11.4734 2.47194 14.7678 5.15471 14.7678 10.0822C14.7678 14.955 11.4734 17.6378 9.20145 17.6378H1.13598C0.511192 17.6378 0 18.1306 0 18.7328C0 19.3351 0.511192 19.8278 1.13598 19.8278H9.20145C13.007 19.8278 17.0965 15.8858 17.0965 10.0275C17.0965 4.22395 13.007 0.281921 9.20145 0.281921ZM36.5786 1.10318C36.4082 0.610424 36.0106 0.281921 35.4426 0.281921C34.9314 0.281921 34.477 0.610424 34.3066 1.10318L24.8212 32.8037C24.6508 33.4059 24.9916 34.0082 25.6164 34.1724C26.2412 34.3367 26.866 34.0082 27.0364 33.4059L35.4994 5.42846L43.9625 33.4607C44.1329 33.9534 44.5873 34.2819 45.0985 34.2819C45.2121 34.2819 45.3257 34.2819 45.4393 34.2272C46.064 34.0629 46.4048 33.4607 46.2345 32.8584L36.5786 1.10318ZM60.9454 0.281921H52.9367C52.3119 0.281921 51.8008 0.774675 51.8008 1.37693C51.8008 1.97918 52.3119 2.47194 52.9367 2.47194H61.0022C63.615 2.47194 66.5685 5.15471 66.5685 8.98724C66.5685 12.8198 63.615 15.5025 61.0022 15.5025H58.1055C57.2535 15.5025 56.7423 16.2143 57.0263 16.9808L63.047 33.4059C63.2174 33.8439 63.6718 34.1724 64.1262 34.1724C64.2398 34.1724 64.4101 34.1724 64.5238 34.1177C65.1485 33.8987 65.4325 33.2964 65.2053 32.6942L59.7526 17.8021H61.0022C64.8077 17.8021 68.8973 14.298 68.8973 9.04199C68.8973 3.78595 64.7509 0.281921 60.9454 0.281921ZM89.9129 32.6394L82.3587 16.6523L89.3449 1.86968C89.6289 1.32218 89.3449 0.665174 88.777 0.391422C88.209 0.11767 87.5274 0.391422 87.2434 0.938926L79.8027 16.6523L87.8114 33.5702C87.9818 34.0082 88.4362 34.2272 88.8905 34.2272C89.061 34.2272 89.2313 34.1724 89.3449 34.1177C89.9129 33.8439 90.1401 33.1869 89.9129 32.6394Z" fill="black"/>
</svg>
