<svg width="100" height="39" viewBox="0 0 100 39" fill="none" xmlns="http://www.w3.org/2000/svg">
<path d="M10.2238 0H1.2622C0.567991 0 0 0.564972 0 1.25549C0 1.94601 0.567991 2.51099 1.2622 2.51099H10.2238C12.7482 2.51099 16.4086 5.58694 16.4086 11.2367C16.4086 16.8236 12.7482 19.8996 10.2238 19.8996H1.2622C0.567991 19.8996 0 20.4645 0 21.1551C0 21.8456 0.567991 22.4105 1.2622 22.4105H10.2238C14.4522 22.4105 18.9961 17.8908 18.9961 11.1739C18.9961 4.51977 14.4522 0 10.2238 0ZM40.6429 0.94162C40.4536 0.376648 40.0118 0 39.3807 0C38.8127 0 38.3078 0.376648 38.1185 0.94162L27.5791 37.2881C27.3898 37.9787 27.7684 38.6692 28.4626 38.8575C29.1569 39.0458 29.8511 38.6692 30.0404 37.9787L39.4438 5.90082L48.8472 38.0414C49.0365 38.6064 49.5414 38.9831 50.1094 38.9831C50.2356 38.9831 50.3618 38.9831 50.4881 38.9203C51.1823 38.732 51.5609 38.0414 51.3716 37.3509L40.6429 0.94162ZM67.7171 0H58.8186C58.1244 0 57.5564 0.564972 57.5564 1.25549C57.5564 1.94601 58.1244 2.51099 58.8186 2.51099H67.7802C70.6833 2.51099 73.965 5.58694 73.965 9.98117C73.965 14.3754 70.6833 17.4514 67.7802 17.4514H64.5616C63.615 17.4514 63.047 18.2674 63.3625 19.1463L70.0522 37.9787C70.2415 38.4809 70.7464 38.8575 71.2513 38.8575C71.3775 38.8575 71.5668 38.8575 71.6931 38.7947C72.3873 38.5436 72.7028 37.8531 72.4504 37.1626L66.3918 20.0879H67.7802C72.0086 20.0879 76.5525 16.0703 76.5525 10.0439C76.5525 4.01758 71.9455 0 67.7171 0ZM99.9033 37.0998L91.5096 18.7696L99.2722 1.82046C99.5877 1.19272 99.2722 0.439423 98.6411 0.125549C98.01 -0.188324 97.2526 0.125549 96.9371 0.753296L88.6697 18.7696L97.5682 38.167C97.7575 38.6692 98.2624 38.9203 98.7673 38.9203C98.9566 38.9203 99.1459 38.8575 99.2722 38.7947C99.9033 38.4809 100.156 37.7276 99.9033 37.0998Z" fill="url(#paint0_linear_211:179)"/>
<defs>
<linearGradient id="paint0_linear_211:179" x1="0" y1="19.4594" x2="100.005" y2="19.4594" gradientUnits="userSpaceOnUse">
<stop stop-color="#E32626"/>
<stop offset="0.0464958" stop-color="#E64825"/>
<stop offset="0.1137" stop-color="#EA6624"/>
<stop offset="0.1823" stop-color="#ED7B22"/>
<stop offset="0.2521" stop-color="#F08821"/>
<stop offset="0.3237" stop-color="#F19020"/>
<stop offset="0.4" stop-color="#F29220"/>
<stop offset="0.68" stop-color="#009993"/>
<stop offset="1" stop-color="#1D86C8"/>
</linearGradient>
</defs>
</svg>
