<svg width="142" height="80" viewBox="0 0 142 80" fill="none" xmlns="http://www.w3.org/2000/svg">
<rect width="142" height="79.88" fill="#F9F2EB"/>
<path d="M24.0641 17H13.4894C12.6702 17 12 17.6667 12 18.4815C12 19.2963 12.6702 19.963 13.4894 19.963H24.0641C27.0429 19.963 31.3622 23.5926 31.3622 30.2593C31.3622 36.8519 27.0429 40.4815 24.0641 40.4815H13.4894C12.6702 40.4815 12 41.1482 12 41.963C12 42.7778 12.6702 43.4444 13.4894 43.4444H24.0641C29.0536 43.4444 34.4154 38.1111 34.4154 30.1852C34.4154 22.3333 29.0536 17 24.0641 17ZM59.9586 18.1111C59.7352 17.4444 59.2139 17 58.4692 17C57.799 17 57.2032 17.4444 56.9798 18.1111L44.5433 61C44.3199 61.8148 44.7668 62.6296 45.5859 62.8519C46.4051 63.0741 47.2243 62.6296 47.4477 61.8148L58.5437 23.963L69.6397 61.8889C69.8631 62.5556 70.4589 63 71.1291 63C71.278 63 71.427 63 71.5759 62.9259C72.3951 62.7037 72.8419 61.8889 72.6185 61.0741L59.9586 18.1111ZM91.9062 17H81.4059C80.5868 17 79.9165 17.6667 79.9165 18.4815C79.9165 19.2963 80.5868 19.963 81.4059 19.963H91.9807C95.4063 19.963 99.2787 23.5926 99.2787 28.7778C99.2787 33.963 95.4063 37.5926 91.9807 37.5926H88.1827C87.0657 37.5926 86.3954 38.5556 86.7678 39.5926L94.6616 61.8148C94.885 62.4074 95.4808 62.8519 96.0765 62.8519C96.2255 62.8519 96.4489 62.8519 96.5978 62.7778C97.417 62.4815 97.7893 61.6667 97.4914 60.8519L90.3423 40.7037H91.9807C96.9702 40.7037 102.332 35.963 102.332 28.8519C102.332 21.7407 96.8957 17 91.9062 17ZM129.886 60.7778L119.981 39.1481L129.141 19.1481C129.513 18.4074 129.141 17.5185 128.396 17.1481C127.652 16.7778 126.758 17.1481 126.386 17.8889L116.63 39.1481L127.13 62.037C127.354 62.6296 127.95 62.9259 128.545 62.9259C128.769 62.9259 128.992 62.8519 129.141 62.7778C129.886 62.4074 130.184 61.5185 129.886 60.7778Z" fill="url(#paint0_linear)"/>
<defs>
<linearGradient id="paint0_linear" x1="12" y1="39.9621" x2="130.006" y2="39.9621" gradientUnits="userSpaceOnUse">
<stop stop-color="#E32626"/>
<stop offset="0.0464958" stop-color="#E64825"/>
<stop offset="0.1137" stop-color="#EA6624"/>
<stop offset="0.1823" stop-color="#ED7B22"/>
<stop offset="0.2521" stop-color="#F08821"/>
<stop offset="0.3237" stop-color="#F19020"/>
<stop offset="0.4" stop-color="#F29220"/>
<stop offset="0.68" stop-color="#009993"/>
<stop offset="1" stop-color="#1D86C8"/>
</linearGradient>
</defs>
</svg>
