<svg width="90" height="34" viewBox="0 0 90 34" fill="none" xmlns="http://www.w3.org/2000/svg">
<path d="M9.20145 0H1.13598C0.511192 0 0 0.492754 0 1.09501C0 1.69726 0.511192 2.19002 1.13598 2.19002H9.20145C11.4734 2.19002 14.7678 4.87279 14.7678 9.80032C14.7678 14.6731 11.4734 17.3559 9.20145 17.3559H1.13598C0.511192 17.3559 0 17.8486 0 18.4509C0 19.0531 0.511192 19.5459 1.13598 19.5459H9.20145C13.007 19.5459 17.0965 15.6039 17.0965 9.74557C17.0965 3.94203 13.007 0 9.20145 0ZM36.5786 0.821256C36.4082 0.328502 36.0106 0 35.4426 0C34.9314 0 34.477 0.328502 34.3066 0.821256L24.8212 32.5217C24.6508 33.124 24.9916 33.7263 25.6164 33.8905C26.2412 34.0548 26.866 33.7262 27.0364 33.124L35.4994 5.14654L43.9625 33.1787C44.1329 33.6715 44.5873 34 45.0985 34C45.2121 34 45.3257 34 45.4393 33.9453C46.064 33.781 46.4048 33.1787 46.2345 32.5765L36.5786 0.821256ZM60.9454 0H52.9367C52.3119 0 51.8008 0.492754 51.8008 1.09501C51.8008 1.69726 52.3119 2.19002 52.9367 2.19002H61.0022C63.615 2.19002 66.5685 4.87279 66.5685 8.70531C66.5685 12.5378 63.615 15.2206 61.0022 15.2206H58.1055C57.2535 15.2206 56.7423 15.9324 57.0263 16.6989L63.047 33.124C63.2174 33.562 63.6718 33.8905 64.1262 33.8905C64.2398 33.8905 64.4101 33.8905 64.5238 33.8358C65.1485 33.6167 65.4325 33.0145 65.2053 32.4122L59.7526 17.5201H61.0022C64.8077 17.5201 68.8973 14.0161 68.8973 8.76007C68.8973 3.50403 64.7509 0 60.9454 0ZM89.9129 32.3575L82.3587 16.3704L89.3449 1.58776C89.6289 1.04026 89.3449 0.383253 88.777 0.109501C88.209 -0.164251 87.5274 0.109501 87.2434 0.657005L79.8027 16.3704L87.8114 33.2882C87.9818 33.7262 88.4362 33.9453 88.8905 33.9453C89.061 33.9453 89.2313 33.8905 89.3449 33.8358C89.9129 33.562 90.1401 32.905 89.9129 32.3575Z" fill="url(#paint0_linear_326:384)"/>
<defs>
<linearGradient id="paint0_linear_326:384" x1="0" y1="16.972" x2="90.0045" y2="16.972" gradientUnits="userSpaceOnUse">
<stop stop-color="#E32626"/>
<stop offset="0.0464958" stop-color="#E64825"/>
<stop offset="0.1137" stop-color="#EA6624"/>
<stop offset="0.1823" stop-color="#ED7B22"/>
<stop offset="0.2521" stop-color="#F08821"/>
<stop offset="0.3237" stop-color="#F19020"/>
<stop offset="0.4" stop-color="#F29220"/>
<stop offset="0.68" stop-color="#009993"/>
<stop offset="1" stop-color="#1D86C8"/>
</linearGradient>
</defs>
</svg>
