<svg width="124" height="18" viewBox="0 0 124 18" fill="none" xmlns="http://www.w3.org/2000/svg">
<path d="M123.569 9L107.608 17.5V0.5L123.569 9Z" fill="#D90000"/>
<path d="M0.431304 9L16.3921 17.5V0.5L0.431304 9Z" fill="#D90000"/>
<path d="M39.3638 15H36.0518V2.39997H39.3638C40.3118 2.39997 41.1158 2.72397 41.7758 3.37197C42.4358 4.00797 42.7658 4.78797 42.7658 5.71197V11.688C42.7658 12.612 42.4358 13.398 41.7758 14.046C41.1158 14.682 40.3118 15 39.3638 15ZM41.2358 11.706V5.69397C41.2358 5.16597 41.0498 4.72197 40.6778 4.36197C40.3058 4.00197 39.8498 3.82197 39.3098 3.82197H37.5458V13.578H39.3098C39.8498 13.578 40.3058 13.398 40.6778 13.038C41.0498 12.678 41.2358 12.234 41.2358 11.706Z" fill="white"/>
<path d="M57.2127 10.158L59.3007 15H57.6267L55.7187 10.41H54.0447V15H52.5327V2.39997H55.9707C56.7747 2.39997 57.4527 2.67597 58.0047 3.22797C58.5687 3.76797 58.8507 4.42797 58.8507 5.20797V7.60197C58.8507 8.17797 58.7067 8.69397 58.4187 9.14997C58.1307 9.59397 57.7287 9.92997 57.2127 10.158ZM57.3207 7.65597V5.18997C57.3207 4.81797 57.1827 4.49997 56.9067 4.23597C56.6307 3.95997 56.3007 3.82197 55.9167 3.82197H54.0447V9.00597H55.9167C56.3007 9.00597 56.6307 8.87397 56.9067 8.60997C57.1827 8.34597 57.3207 8.02797 57.3207 7.65597Z" fill="white"/>
<path d="M70.6157 2.39997H72.9737L75.2597 9.65397V15H73.7477V10.986H69.8237V15H68.3297V9.61797L70.6157 2.39997ZM73.7117 9.58197L71.9657 3.76797H71.6237L69.8957 9.58197H73.7117Z" fill="white"/>
<path d="M91.5607 8.51997V11.868C91.5607 12.768 91.2247 13.548 90.5527 14.208C89.8927 14.856 89.0407 15.18 87.9967 15.18C86.9167 15.18 86.0467 14.856 85.3867 14.208C84.7387 13.548 84.4147 12.762 84.4147 11.85V5.53197C84.4147 4.61997 84.7387 3.83997 85.3867 3.19197C86.0467 2.54397 86.9167 2.21997 87.9967 2.21997C89.1487 2.21997 90.0247 2.56197 90.6247 3.24597C91.2367 3.92997 91.5427 4.69797 91.5427 5.54997H90.0127C90.0127 5.02197 89.8207 4.57197 89.4367 4.19997C89.0527 3.82797 88.5727 3.64197 87.9967 3.64197C87.3727 3.64197 86.8747 3.82197 86.5027 4.18197C86.1307 4.52997 85.9447 4.97397 85.9447 5.51397V11.868C85.9447 12.396 86.1307 12.846 86.5027 13.218C86.8747 13.578 87.3727 13.758 87.9967 13.758C88.5967 13.758 89.0827 13.578 89.4547 13.218C89.8267 12.846 90.0127 12.402 90.0127 11.886V9.92397H88.1767V8.51997H91.5607Z" fill="white"/>
</svg>
