<svg width="160" height="18" viewBox="0 0 160 18" fill="none" xmlns="http://www.w3.org/2000/svg">
<path d="M159.569 9L143.608 17.5V0.5L159.569 9Z" fill="#D90000"/>
<path d="M0.431304 9L16.3921 17.5V0.5L0.431304 9Z" fill="#D90000"/>
<path d="M39.4721 15.18C38.3561 15.18 37.4801 14.85 36.8441 14.19C36.2081 13.53 35.8901 12.714 35.8901 11.742V11.382H37.4201V11.778C37.4201 12.354 37.6001 12.828 37.9601 13.2C38.3201 13.572 38.8241 13.758 39.4721 13.758C40.0721 13.758 40.5581 13.59 40.9301 13.254C41.3021 12.906 41.4881 12.492 41.4881 12.012C41.4881 11.4 41.3021 10.884 40.9301 10.464C40.5581 10.032 40.1081 9.68397 39.5801 9.41997C39.0521 9.14397 38.5181 8.86197 37.9781 8.57397C37.4501 8.27397 37.0001 7.87197 36.6281 7.36797C36.2561 6.85197 36.0701 6.23397 36.0701 5.51397C36.0701 4.57797 36.4001 3.79797 37.0601 3.17397C37.7321 2.53797 38.5421 2.21997 39.4901 2.21997C40.5221 2.21997 41.3441 2.56197 41.9561 3.24597C42.5801 3.92997 42.8921 4.66797 42.8921 5.45997V5.56797H41.3981C41.3981 5.06397 41.2121 4.62597 40.8401 4.25397C40.4801 3.86997 40.0301 3.67797 39.4901 3.67797C38.9621 3.67797 38.5121 3.84597 38.1401 4.18197C37.7801 4.51797 37.6001 4.93197 37.6001 5.42397C37.6001 5.90397 37.7861 6.32397 38.1581 6.68397C38.5301 7.03197 38.9801 7.34397 39.5081 7.61997C40.0481 7.88397 40.5821 8.17797 41.1101 8.50197C41.6501 8.81397 42.1061 9.25797 42.4781 9.83397C42.8501 10.398 43.0361 11.076 43.0361 11.868C43.0361 12.744 42.7121 13.518 42.0641 14.19C41.4281 14.85 40.5641 15.18 39.4721 15.18Z" fill="white"/>
<path d="M59.2111 11.508V11.868C59.2111 12.792 58.8811 13.578 58.2211 14.226C57.5611 14.862 56.7391 15.18 55.7551 15.18C54.7471 15.18 53.9131 14.862 53.2531 14.226C52.6051 13.578 52.2811 12.786 52.2811 11.85V5.53197C52.2811 4.61997 52.6171 3.83997 53.2891 3.19197C53.9731 2.54397 54.7951 2.21997 55.7551 2.21997C56.7391 2.21997 57.5491 2.54397 58.1851 3.19197C58.8211 3.82797 59.1391 4.61397 59.1391 5.54997H57.6271C57.6271 5.02197 57.4471 4.57197 57.0871 4.19997C56.7271 3.82797 56.2831 3.64197 55.7551 3.64197C55.2151 3.64197 54.7531 3.82797 54.3691 4.19997C53.9971 4.57197 53.8111 5.02197 53.8111 5.54997V11.868C53.8111 12.396 53.9971 12.846 54.3691 13.218C54.7411 13.578 55.2031 13.758 55.7551 13.758C56.2831 13.758 56.7331 13.578 57.1051 13.218C57.4891 12.846 57.6811 12.402 57.6811 11.886V11.508H59.2111Z" fill="white"/>
<path d="M73.4061 10.158L75.4941 15H73.8201L71.9121 10.41H70.2381V15H68.7261V2.39997H72.1641C72.9681 2.39997 73.6461 2.67597 74.1981 3.22797C74.7621 3.76797 75.0441 4.42797 75.0441 5.20797V7.60197C75.0441 8.17797 74.9001 8.69397 74.6121 9.14997C74.3241 9.59397 73.9221 9.92997 73.4061 10.158ZM73.5141 7.65597V5.18997C73.5141 4.81797 73.3761 4.49997 73.1001 4.23597C72.8241 3.95997 72.4941 3.82197 72.1101 3.82197H70.2381V9.00597H72.1101C72.4941 9.00597 72.8241 8.87397 73.1001 8.60997C73.3761 8.34597 73.5141 8.02797 73.5141 7.65597Z" fill="white"/>
<path d="M91.561 5.53197V11.868C91.561 12.744 91.231 13.518 90.571 14.19C89.923 14.85 89.065 15.18 87.997 15.18C86.905 15.18 86.035 14.85 85.387 14.19C84.739 13.518 84.415 12.738 84.415 11.85V5.53197C84.415 4.64397 84.739 3.86997 85.387 3.20997C86.035 2.54997 86.905 2.21997 87.997 2.21997C89.065 2.21997 89.923 2.55597 90.571 3.22797C91.231 3.88797 91.561 4.65597 91.561 5.53197ZM90.031 11.886V5.51397C90.031 5.00997 89.845 4.57197 89.473 4.19997C89.113 3.82797 88.621 3.64197 87.997 3.64197C87.361 3.64197 86.857 3.82797 86.485 4.19997C86.125 4.57197 85.945 5.00997 85.945 5.51397V11.868C85.945 12.384 86.125 12.828 86.485 13.2C86.857 13.572 87.361 13.758 87.997 13.758C88.621 13.758 89.113 13.572 89.473 13.2C89.845 12.828 90.031 12.39 90.031 11.886Z" fill="white"/>
<path d="M101.922 2.39997H103.452V13.578H108.33V15H101.922V2.39997Z" fill="white"/>
<path d="M118.115 2.39997H119.645V13.578H124.523V15H118.115V2.39997Z" fill="white"/>
</svg>
