<svg width="142" height="34" viewBox="0 0 142 34" fill="none" xmlns="http://www.w3.org/2000/svg">
<path d="M132.569 17L116.608 25.5V8.5L132.569 17Z" fill="#D90000"/>
<path d="M9.4313 17L25.3921 25.5V8.5L9.4313 17Z" fill="#D90000"/>
<path d="M48.364 23H45.052V10.4H48.364C49.312 10.4 50.116 10.724 50.776 11.372C51.436 12.008 51.766 12.788 51.766 13.712V19.688C51.766 20.612 51.436 21.398 50.776 22.046C50.116 22.682 49.312 23 48.364 23ZM50.236 19.706V13.694C50.236 13.166 50.05 12.722 49.678 12.362C49.306 12.002 48.85 11.822 48.31 11.822H46.546V21.578H48.31C48.85 21.578 49.306 21.398 49.678 21.038C50.05 20.678 50.236 20.234 50.236 19.706ZM66.213 18.158L68.301 23H66.627L64.719 18.41H63.045V23H61.533V10.4H64.971C65.775 10.4 66.453 10.676 67.005 11.228C67.569 11.768 67.851 12.428 67.851 13.208V15.602C67.851 16.178 67.707 16.694 67.419 17.15C67.131 17.594 66.729 17.93 66.213 18.158ZM66.321 15.656V13.19C66.321 12.818 66.183 12.5 65.907 12.236C65.631 11.96 65.301 11.822 64.917 11.822H63.045V17.006H64.917C65.301 17.006 65.631 16.874 65.907 16.61C66.183 16.346 66.321 16.028 66.321 15.656ZM79.6159 10.4H81.9739L84.2599 17.654V23H82.7479V18.986H78.8239V23H77.3299V17.618L79.6159 10.4ZM82.7119 17.582L80.9659 11.768H80.6239L78.8959 17.582H82.7119ZM100.561 16.52V19.868C100.561 20.768 100.225 21.548 99.5529 22.208C98.8929 22.856 98.0409 23.18 96.9969 23.18C95.9169 23.18 95.0469 22.856 94.3869 22.208C93.7389 21.548 93.4149 20.762 93.4149 19.85V13.532C93.4149 12.62 93.7389 11.84 94.3869 11.192C95.0469 10.544 95.9169 10.22 96.9969 10.22C98.1489 10.22 99.0249 10.562 99.6249 11.246C100.237 11.93 100.543 12.698 100.543 13.55H99.0129C99.0129 13.022 98.8209 12.572 98.4369 12.2C98.0529 11.828 97.5729 11.642 96.9969 11.642C96.3729 11.642 95.8749 11.822 95.5029 12.182C95.1309 12.53 94.9449 12.974 94.9449 13.514V19.868C94.9449 20.396 95.1309 20.846 95.5029 21.218C95.8749 21.578 96.3729 21.758 96.9969 21.758C97.5969 21.758 98.0829 21.578 98.4549 21.218C98.8269 20.846 99.0129 20.402 99.0129 19.886V17.924H97.1769V16.52H100.561Z" fill="white"/>
</svg>
