<svg width="98" height="34" viewBox="0 0 98 34" fill="none" xmlns="http://www.w3.org/2000/svg">
<path d="M27.5687 17L11.6079 25.5V8.5L27.5687 17Z" fill="#D90000"/>
<path d="M42.05 18.626V23H40.538V10.4H43.976C44.78 10.4 45.458 10.676 46.01 11.228C46.574 11.768 46.856 12.428 46.856 13.208V15.8C46.856 16.592 46.574 17.264 46.01 17.816C45.458 18.356 44.78 18.626 43.976 18.626H42.05ZM45.326 15.854V13.19C45.326 12.806 45.188 12.482 44.912 12.218C44.636 11.954 44.3 11.822 43.904 11.822H42.05V17.204H43.904C44.3 17.204 44.636 17.072 44.912 16.808C45.188 16.544 45.326 16.226 45.326 15.854ZM57.343 10.4H58.873V21.578H63.751V23H57.343V10.4ZM74.6159 10.4H76.9739L79.2599 17.654V23H77.7479V18.986H73.8239V23H72.3299V17.618L74.6159 10.4ZM77.7119 17.582L75.9659 11.768H75.6239L73.8959 17.582H77.7119ZM89.5849 10.4L91.9789 15.35L94.3549 10.4H96.0469L92.7349 17.042V23H91.2229V17.042L87.9109 10.4H89.5849Z" fill="white"/>
</svg>
