<svg width="29" height="28" viewBox="0 0 29 28" fill="none" xmlns="http://www.w3.org/2000/svg">
<path d="M24.5886 9.5945C23.4003 15.7385 16.7837 20.9335 14.7853 22.1073C12.7868 23.3061 10.9774 21.6328 10.3022 20.384C9.54605 18.9604 7.27752 11.168 6.68338 10.5436C6.08924 9.89421 4.30683 11.1929 4.30683 11.1929L3.44263 10.144C3.44263 10.144 7.06147 6.17283 9.78911 5.6983C12.7328 5.14883 12.7328 9.79431 13.435 12.3668C14.1101 14.8644 14.5692 16.288 15.1634 16.288C15.7575 16.288 16.8918 14.8893 18.134 12.7664C19.3763 10.6435 18.08 8.74533 15.6495 10.094C16.6217 4.74922 25.7768 3.45048 24.5886 9.5945Z" fill="#F9F2EB"/>
</svg>
