<svg width="30" height="29" viewBox="0 0 30 29" fill="none" xmlns="http://www.w3.org/2000/svg">
<path d="M26.1345 9.9387C24.9038 16.3041 18.051 21.6862 15.9811 22.9024C13.9113 24.1444 12.0373 22.4107 11.338 21.1169C10.5548 19.642 8.20525 11.5689 7.58989 10.922C6.97454 10.2492 5.12846 11.5947 5.12846 11.5947L4.2334 10.508C4.2334 10.508 7.98149 6.39375 10.8065 5.90211C13.8554 5.33285 13.8554 10.1457 14.5826 12.8109C15.2819 15.3984 15.7574 16.8733 16.3727 16.8733C16.9881 16.8733 18.1629 15.4243 19.4495 13.2249C20.7362 11.0255 19.3936 9.05893 16.8762 10.4562C17.8831 4.91884 27.3653 3.57331 26.1345 9.9387Z" fill="white"/>
</svg>
