<svg width="24" height="19" viewBox="0 0 24 19" fill="none" xmlns="http://www.w3.org/2000/svg">
<path d="M23.8801 4.56261C22.5382 11.4254 15.0661 17.2281 12.8092 18.5393C10.5524 19.8784 8.50899 18.0092 7.74654 16.6144C6.89259 15.0242 4.33074 6.32016 3.65978 5.62272C2.98882 4.89738 0.975942 6.34805 0.975942 6.34805L0 5.17635C0 5.17635 4.08676 0.74064 7.16707 0.210586C10.4914 -0.403161 10.4914 4.78579 11.2843 7.65924C12.0468 10.449 12.5652 12.0392 13.2362 12.0392C13.9072 12.0392 15.1881 10.4769 16.591 8.1056C17.9939 5.73431 16.53 3.61409 13.7852 5.12056C14.8831 -0.849523 25.222 -2.3002 23.8801 4.56261Z" fill="#12101F"/>
</svg>
