<svg width="29" height="28" viewBox="0 0 29 28" fill="none" xmlns="http://www.w3.org/2000/svg">
<path d="M24.5862 9.59534C23.398 15.7406 16.7822 20.9366 14.7839 22.1107C12.7856 23.3098 10.9764 21.6361 10.3013 20.387C9.54519 18.9631 7.27689 11.1691 6.68281 10.5446C6.08873 9.89511 4.3065 11.1941 4.3065 11.1941L3.44238 10.1449C3.44238 10.1449 7.06086 6.17297 9.78823 5.69833C12.7316 5.14876 12.7316 9.79519 13.4337 12.3682C14.1088 14.8663 14.5679 16.2902 15.1619 16.2902C15.756 16.2902 16.8902 14.8913 18.1323 12.7679C19.3745 10.6445 18.0783 8.74599 15.648 10.095C16.6201 4.74906 25.7744 3.45006 24.5862 9.59534Z" fill="#12101F"/>
</svg>
